<svg width="1489" height="375" viewBox="0 0 1489 375" fill="none" xmlns="http://www.w3.org/2000/svg">
<path d="M26.2244 0.167999H50.6084V74.844H143.826V0.167999H168.21V180H143.826V97.704H50.6084V180H26.2244V0.167999ZM263.514 0.167999V110.404C263.514 115.992 264.276 121.834 265.8 127.93C267.324 133.857 269.864 139.36 273.42 144.44C276.976 149.52 281.633 153.669 287.39 156.886C293.147 160.103 300.259 161.712 308.726 161.712C317.193 161.712 324.305 160.103 330.062 156.886C335.819 153.669 340.476 149.52 344.032 144.44C347.588 139.36 350.128 133.857 351.652 127.93C353.176 121.834 353.938 115.992 353.938 110.404V0.167999H378.322V114.214C378.322 124.713 376.544 134.28 372.988 142.916C369.432 151.383 364.521 158.749 358.256 165.014C351.991 171.279 344.625 176.105 336.158 179.492C327.691 182.879 318.547 184.572 308.726 184.572C298.905 184.572 289.761 182.879 281.294 179.492C272.827 176.105 265.461 171.279 259.196 165.014C252.931 158.749 248.02 151.383 244.464 142.916C240.908 134.28 239.13 124.713 239.13 114.214V0.167999H263.514ZM447.436 0.167999H483.758L540.908 136.312H541.924L598.566 0.167999H634.888V180H610.504V32.172H609.996L549.29 180H533.034L472.328 32.172H471.82V180H447.436V0.167999ZM763.729 0.167999H785.827L862.789 180H834.341L816.307 135.55H730.709L712.929 180H684.481L763.729 0.167999ZM807.417 114.214L773.889 31.664H773.381L739.345 114.214H807.417ZM914.123 0.167999H946.127L1045.19 147.996H1045.7V0.167999H1070.08V180H1039.09L939.015 32.172H938.507V180H914.123V0.167999ZM1192.48 129.2H1130V107.864H1192.48V129.2ZM1308.92 0.167999H1331.01L1407.98 180H1379.53L1361.49 135.55H1275.9L1258.12 180H1229.67L1308.92 0.167999ZM1352.6 114.214L1319.08 31.664H1318.57L1284.53 114.214H1352.6ZM1459.31 0.167999H1483.69V180H1459.31V0.167999ZM79.5713 190.168H101.669L178.631 370H150.183L132.149 325.55H46.5513L28.7713 370H0.323336L79.5713 190.168ZM123.259 304.214L89.7313 221.664H89.2233L55.1873 304.214H123.259ZM202.025 190.168H226.409V347.14H308.959V370H202.025V190.168ZM486.9 269.416V358.062C482.497 360.771 477.502 363.142 471.914 365.174C466.326 367.206 460.484 368.899 454.388 370.254C448.461 371.778 442.365 372.879 436.1 373.556C430.004 374.233 424.247 374.572 418.828 374.572C403.588 374.572 389.957 372.032 377.934 366.952C366.081 361.872 356.005 355.014 347.708 346.378C339.58 337.742 333.315 327.751 328.912 316.406C324.679 304.891 322.562 292.784 322.562 280.084C322.562 266.707 324.848 254.261 329.42 242.746C334.161 231.231 340.596 221.241 348.724 212.774C357.021 204.307 366.927 197.703 378.442 192.962C389.957 188.051 402.572 185.596 416.288 185.596C432.883 185.596 446.429 187.713 456.928 191.946C467.427 196.01 476.232 201.683 483.344 208.964L466.072 227.506C458.621 220.394 450.747 215.483 442.45 212.774C434.153 209.895 425.432 208.456 416.288 208.456C405.959 208.456 396.645 210.403 388.348 214.298C380.051 218.023 372.939 223.103 367.012 229.538C361.085 235.973 356.513 243.593 353.296 252.398C350.079 261.034 348.47 270.263 348.47 280.084C348.47 290.244 350.248 299.727 353.804 308.532C357.36 317.168 362.271 324.703 368.536 331.138C374.801 337.573 382.167 342.653 390.634 346.378C399.101 349.934 408.329 351.712 418.32 351.712C426.956 351.712 435.084 350.95 442.704 349.426C450.493 347.733 457.097 345.362 462.516 342.314V292.276H422.638V269.416H486.9ZM613.981 374.572C600.265 374.572 587.65 372.201 576.135 367.46C564.621 362.549 554.715 355.861 546.417 347.394C538.289 338.927 531.855 328.937 527.113 317.422C522.541 305.907 520.255 293.461 520.255 280.084C520.255 266.707 522.541 254.261 527.113 242.746C531.855 231.231 538.289 221.241 546.417 212.774C554.715 204.307 564.621 197.703 576.135 192.962C587.65 188.051 600.265 185.596 613.981 185.596C627.697 185.596 640.313 188.051 651.827 192.962C663.342 197.703 673.163 204.307 681.291 212.774C689.589 221.241 696.023 231.231 700.595 242.746C705.337 254.261 707.707 266.707 707.707 280.084C707.707 293.461 705.337 305.907 700.595 317.422C696.023 328.937 689.589 338.927 681.291 347.394C673.163 355.861 663.342 362.549 651.827 367.46C640.313 372.201 627.697 374.572 613.981 374.572ZM613.981 351.712C624.311 351.712 633.624 349.849 641.921 346.124C650.219 342.229 657.331 337.065 663.257 330.63C669.184 324.195 673.756 316.66 676.973 308.024C680.191 299.219 681.799 289.905 681.799 280.084C681.799 270.263 680.191 261.034 676.973 252.398C673.756 243.593 669.184 235.973 663.257 229.538C657.331 223.103 650.219 218.023 641.921 214.298C633.624 210.403 624.311 208.456 613.981 208.456C603.652 208.456 594.339 210.403 586.041 214.298C577.744 218.023 570.632 223.103 564.705 229.538C558.779 235.973 554.207 243.593 550.989 252.398C547.772 261.034 546.163 270.263 546.163 280.084C546.163 289.905 547.772 299.219 550.989 308.024C554.207 316.66 558.779 324.195 564.705 330.63C570.632 337.065 577.744 342.229 586.041 346.124C594.339 349.849 603.652 351.712 613.981 351.712ZM742.767 190.168H806.013C817.528 190.168 827.011 191.777 834.461 194.994C841.912 198.042 847.754 202.021 851.987 206.932C856.39 211.673 859.438 217.092 861.131 223.188C862.825 229.115 863.671 234.872 863.671 240.46C863.671 246.217 862.655 251.805 860.623 257.224C858.591 262.473 855.628 267.299 851.733 271.702C848.008 275.935 843.351 279.576 837.763 282.624C832.345 285.503 826.249 287.281 819.475 287.958L870.529 370H840.049L794.329 290.752H767.151V370H742.767V190.168ZM767.151 269.416H799.155C803.897 269.416 808.553 269.077 813.125 268.4C817.867 267.553 822.015 266.114 825.571 264.082C829.297 262.05 832.26 259.171 834.461 255.446C836.663 251.551 837.763 246.556 837.763 240.46C837.763 234.364 836.663 229.453 834.461 225.728C832.26 221.833 829.297 218.87 825.571 216.838C822.015 214.806 817.867 213.451 813.125 212.774C808.553 211.927 803.897 211.504 799.155 211.504H767.151V269.416ZM898.045 190.168H922.429V370H898.045V190.168ZM1006.33 213.028H948.418V190.168H1088.63V213.028H1030.71V370H1006.33V213.028ZM1114.59 190.168H1138.97V264.844H1232.19V190.168H1256.58V370H1232.19V287.704H1138.97V370H1114.59V190.168ZM1301.08 190.168H1337.4L1394.55 326.312H1395.57L1452.21 190.168H1488.53V370H1464.15V222.172H1463.64L1402.93 370H1386.68L1325.97 222.172H1325.46V370H1301.08V190.168Z" fill="#F2F2F2"/>
</svg>
